# xmcd CD database file
#
# Track frame offsets:
#	150
#	27150
#	49322
#	85472
#	113237
#	143177
#	167167
#	195995
#	230610
#	254070
#	281887
#	296597
#
# Disc length: 4439 seconds
#
# Revision: 1
# Processed by: cddbd v1.5.1PL0 Copyright (c) Steve Scherf et al.
# Submitted via: CDex 1.51
#
DISCID=b811550c
DTITLE=Mijk van Dijk - Glow [SRCS 8585&6] (Disc1)
DYEAR=1998
DGENRE=Electronic
TTITLE0=Sound and Thought and Vision
TTITLE1=I Constantly Invent Myself
TTITLE2=More
TTITLE3=I Think I Know
TTITLE4=Sub-C
TTITLE5=Watch Me Dance
TTITLE6=Doo-De-Doo
TTITLE7=Automatic
TTITLE8=Outta Control
TTITLE9=Suck My Soul
TTITLE10=The Eternal Afterhour Of The Soul
TTITLE11=Shelter
EXTD=YEAR: 1998
EXTT0=
EXTT1=
EXTT2=
EXTT3=
EXTT4=
EXTT5=
EXTT6=
EXTT7=
EXTT8=
EXTT9=
EXTT10=
EXTT11=
PLAYORDER=
